inDegrees=yes
name=ik_S42_A12_T02
DataType=double
version=3
OpenSimVersion=4.3-2021-08-27-4bc7ad9
endheader
time	pelvis_tilt	pelvis_list	pelvis_rotation	pelvis_tx	pelvis_ty	pelvis_tz	hip_flexion_r	hip_adduction_r	hip_rotation_r	knee_angle_r	knee_angle_r_beta	ankle_angle_r	subtalar_angle_r	mtp_angle_r	hip_flexion_l	hip_adduction_l	hip_rotation_l	knee_angle_l	knee_angle_l_beta	ankle_angle_l	subtalar_angle_l	mtp_angle_l	lumbar_extension	lumbar_bending	lumbar_rotation	arm_flex_r	arm_add_r	arm_rot_r	elbow_flex_r	pro_sup_r	wrist_flex_r	wrist_dev_r	arm_flex_l	arm_add_l	arm_rot_l	elbow_flex_l	pro_sup_l	wrist_flex_l	wrist_dev_l
10.29999999999987	-0.602916970176553	2.620045544246266	16.97617519648447	0	0.9399999999999999	0	35.16335292841705	-9.827169029858949	-9.412244705755102	39.67700772077511	0.6924944220667366	0	0	0	35.16335292841705	-9.827169029858949	-9.412244705755102	39.67700772077511	0.6924944220667366	0	0	0	0.6528865923830401	2.258499548568827	-1.521597025544487	4.678211127567963	-4.71357218541736	-3.74384038722369	1.62226072502506	116.1098649340915	0	0	101.0002669361419	-42.83529786015919	16.50547950700081	83.36093355203009	-3.906839884111678	0	0
10.31999999999987	-0.6145248309329483	2.62297078048952	16.99700731042305	0	0.9399999999999999	0	35.16402859377038	-9.82720864484167	-9.412331993734766	39.67775967961991	0.6925075462244179	0	0	0	35.16402859377038	-9.82720864484167	-9.412331993734766	39.67775967961991	0.6925075462244179	0	0	0	0.6431523740631089	2.264380452022642	-1.534548152304153	4.69503091449595	-4.725504206497262	-3.776664970044818	1.616100306762722	116.1122488850514	0	0	100.9180173796703	-42.92841375747441	16.62118714233013	83.3400134112688	-3.875767205723411	0	0
10.33999999999987	-0.6019641939539765	2.624787091699411	16.99749578118672	0	0.9399999999999999	0	35.18385803361134	-9.82808199122357	-9.414538308537507	39.70012566187604	0.69289790625523	0	0	0	35.18385803361134	-9.82808199122357	-9.414538308537507	39.70012566187604	0.69289790625523	0	0	0	0.6558351064692787	2.262549697235916	-1.549193873798458	4.654602036255371	-4.715971306664873	-3.755416975399201	1.623966491848564	116.084738190974	0	0	100.9121583119571	-42.98810187691164	16.62630617811723	83.29735917706699	-3.832478806999325	0	0
10.35999999999987	-0.5930636492716409	2.622994367242012	16.98335370586414	0	0.9399999999999999	0	35.19997580699702	-9.828810965808332	-9.416354504285399	39.71826726867904	0.6932145370255446	0	0	0	35.19997580699702	-9.828810965808332	-9.416354504285399	39.71826726867904	0.6932145370255446	0	0	0	0.6640881227545914	2.25844390870904	-1.563911081499852	4.656772298542296	-4.708570076533335	-3.728828593417124	1.61056893132091	116.0842593521367	0	0	100.9167407984376	-43.05789634257199	16.61651715793587	83.25028132212846	-3.784328177884705	0	0
10.37999999999987	-0.5958653531379723	2.625087892603238	16.98963443334301	0	0.9399999999999999	0	35.2181578243126	-9.829605172474581	-9.418367319044606	39.73881682944304	0.6935731945207149	0	0	0	35.2181578243126	-9.829605172474581	-9.418367319044606	39.73881682944304	0.6935731945207149	0	0	0	0.6617743566206652	2.261549151857269	-1.571045509182823	4.644067573176407	-4.709227037824194	-3.743090323329799	1.605646123370418	116.0470320899052	0	0	100.9372437695926	-43.11932152266973	16.5843163444423	83.236503371685	-3.786584957342586	0	0
10.39999999999987	-0.578918649290202	2.636022542347003	16.97920527366253	0	0.9399999999999999	0	35.24668133915009	-9.830865662993494	-9.421549454171618	39.77100887578031	0.6941350517222549	0	0	0	35.24668133915009	-9.830865662993494	-9.421549454171618	39.77100887578031	0.6941350517222549	0	0	0	0.6797319350457729	2.268338611364541	-1.558003915081261	4.586030552115064	-4.717996131484363	-3.764680453043709	1.661691759809837	115.9997573393733	0	0	100.8650771112258	-43.1080493400742	16.55074875057328	83.15970901391621	-3.738103165874453	0	0
10.41999999999987	-0.5856817320930732	2.638368344728339	16.96032180054178	0	0.9399999999999999	0	35.30205476981244	-9.833450752830849	-9.427892631894689	39.83311001710674	0.6952189211076474	0	0	0	35.30205476981244	-9.833450752830849	-9.427892631894689	39.83311001710674	0.6952189211076474	0	0	0	0.6727581143993241	2.273367197136881	-1.554625583310661	4.571066935424806	-4.745197360864152	-3.754711587203204	1.793073205053667	115.9918333342986	0	0	100.8446417927754	-43.08537940359843	16.51966873003208	83.09513191227447	-3.445149312448384	0	0
10.43999999999987	-0.5774698514689328	2.633137404554287	16.98935408374166	0	0.9399999999999999	0	35.31802045339345	-9.834195757563595	-9.429728985899303	39.85098165873526	0.6955308400968017	0	0	0	35.31802045339345	-9.834195757563595	-9.429728985899303	39.85098165873526	0.6955308400968017	0	0	0	0.67876528574995	2.26710660566545	-1.558167263156563	4.56952899814497	-4.70457713132392	-3.784690719959007	1.614818105110662	116.0061368862195	0	0	100.8897461042044	-43.1175689370266	16.56942932052806	83.1627238400539	-3.733110917283069	0	0
10.45999999999987	-0.5686949320987877	2.633297343978222	17.02684227926485	0	0.9399999999999999	0	35.31889386127472	-9.834246608280901	-9.42984158525524	39.85194195641029	0.6955476004530301	0	0	0	35.31889386127472	-9.834246608280901	-9.42984158525524	39.85194195641029	0.6955476004530301	0	0	0	0.6871256019587495	2.264753818270057	-1.556336081946809	4.53102660387403	-4.697762083495238	-3.802375295297581	1.61633592610682	115.9764746044688	0	0	100.915225640721	-43.22833943552004	16.53610199841161	83.14973562881977	-3.767122355280487	0	0
10.47999999999987	-0.555160624904812	2.647934539559352	17.03563120184398	0	0.9399999999999999	0	35.34262979425685	-9.835267744634637	-9.432449787693564	39.87879133543295	0.6960162105190915	0	0	0	35.34262979425685	-9.835267744634637	-9.432449787693564	39.87879133543295	0.6960162105190915	0	0	0	0.7040653855827448	2.275110338862067	-1.564720161373502	4.47695510385581	-4.716246075731851	-3.746832504863556	1.668689951791324	115.9066510861715	0	0	100.8638266911596	-43.30398712014317	16.56519865264437	83.11347165989532	-3.707186219777391	0	0
10.49999999999986	-0.5498171407993691	2.652000992779347	17.04041179873058	0	0.9399999999999999	0	35.36525815967711	-9.836273993678043	-9.434977586598507	39.90429340487841	0.6964613055969869	0	0	0	35.36525815967711	-9.836273993678043	-9.434977586598507	39.90429340487841	0.6964613055969869	0	0	0	0.7098261184492531	2.277886666308554	-1.565984935656278	4.456907689834718	-4.720353667707545	-3.707296078047758	1.699129344742794	115.8973474567631	0	0	100.8414779083321	-43.30563355382636	16.5686871111102	83.06914957058346	-3.560391243411185	0	0
10.51999999999986	-0.5376125014211641	2.660234223850677	17.05684957275388	0	0.9399999999999999	0	35.38566098573703	-9.837157276779015	-9.437224902034963	39.92736798318639	0.6968640329619705	0	0	0	35.38566098573703	-9.837157276779015	-9.437224902034963	39.92736798318639	0.6968640329619705	0	0	0	0.7234412162792522	2.282602949187222	-1.568058423148085	4.416807283342573	-4.727498927201667	-3.677973498391178	1.710054129314881	115.8861681957178	0	0	100.8194636734936	-43.36928209645887	16.62602404443266	83.04515306553996	-3.466873746423213	0	0
10.53999999999986	-0.5296513038285253	2.66401077782046	17.07669573823141	0	0.9399999999999999	0	35.40969192671447	-9.838254519251226	-9.439944481497371	39.95438018703529	0.6973354848573536	0	0	0	35.40969192671447	-9.838254519251226	-9.439944481497371	39.95438018703529	0.6973354848573536	0	0	0	0.7312392462447029	2.284562052163031	-1.561360870689704	4.389990420121518	-4.724091946252157	-3.65700323859947	1.73549792462412	115.8609183601494	0	0	100.7901498258849	-43.34626747857052	16.64762092366984	82.9770535268248	-3.193640088967984	0	0
10.55999999999986	-0.5171036033938289	2.671758285893108	17.1243250876121	0	0.9399999999999999	0	35.41092735296409	-9.838325604897641	-9.440102773759918	39.95573753655132	0.6973591750755087	0	0	0	35.41092735296409	-9.838325604897641	-9.440102773759918	39.95573753655132	0.6973591750755087	0	0	0	0.7459656682083655	2.288003989882361	-1.571632160316728	4.354135249417997	-4.72301742366537	-3.664684764191871	1.706833974018718	115.8592838098124	0	0	100.7257544675534	-43.48797600222642	16.84524239893895	83.03146551019303	-3.194602833945365	0	0
10.57999999999986	-0.500642294016981	2.67230556909449	17.1390307885665	0	0.9399999999999999	0	35.42755326713361	-9.839027726339527	-9.441909245943103	39.97461170116148	0.6976885913915194	0	0	0	35.42755326713361	-9.839027726339527	-9.441909245943103	39.97461170116148	0.6976885913915194	0	0	0	0.7612406507603601	2.284283359112986	-1.56736434819172	4.322278039998997	-4.708774159725532	-3.67429118417474	1.704284104016347	115.8591499024182	0	0	100.7102247323799	-43.47851546951593	16.86747280186852	83.05031575951134	-3.191365210323173	0	0
10.59999999999986	-0.4983709410251572	2.664679909175431	17.15544654954248	0	0.9399999999999999	0	35.43144690690598	-9.839253005514099	-9.442410103659874	39.97885792740232	0.6977627020202065	0	0	0	35.43144690690598	-9.839253005514099	-9.442410103659874	39.97885792740232	0.6977627020202065	0	0	0	0.7622263597481084	2.27573277904583	-1.593478474904505	4.313393286455675	-4.674399996587466	-3.649516947286402	1.708553854024335	115.9002578306953	0	0	100.7303130921663	-43.67396379477817	16.98176686505232	83.21524405704832	-3.375577210862965	0	0
